<svg width="42" height="42" viewBox="0 0 42 42" fill="none" xmlns="http://www.w3.org/2000/svg">
<path fill-rule="evenodd" clip-rule="evenodd" d="M19.8188 0.916124C20.5497 0.494104 21.4503 0.494105 22.1813 0.916124L37.8022 9.93491C38.5332 10.3569 38.9835 11.1369 38.9835 11.9809V30.0185C38.9835 30.8625 38.5332 31.6424 37.8022 32.0644L22.1813 41.0832C22.0797 41.1419 21.9748 41.1924 21.8676 41.2347C21.631 41.4431 21.3237 41.5623 21 41.5623C20.6763 41.5623 20.369 41.4431 20.1324 41.2347C20.0252 41.1924 19.9203 41.1419 19.8188 41.0832L4.19776 32.0644C3.4668 31.6424 3.01651 30.8625 3.01651 30.0185V11.9809C3.01651 11.1369 3.4668 10.3569 4.19776 9.93491L19.8188 0.916124ZM24.9037 36.4803L34.9848 30.66L30.202 28.003L24.9037 36.4803ZM27.382 27.5623H14.618L21 37.7734L27.382 27.5623ZM11.7979 28.003L17.0963 36.4803L7.01523 30.66L11.7979 28.003ZM10.4882 25.7277L5.64151 28.4203V16.5728L10.4882 25.7277ZM36.3585 28.4203V16.5728L31.5118 25.7277L36.3585 28.4203ZM22.3125 4.02298L33.1753 10.2946L22.3125 10.8663V4.02298ZM8.82486 10.2945L19.6875 4.023V10.8663L8.82486 10.2945ZM29.6559 23.6228L23.2937 13.4433L35.3819 12.8071L29.6559 23.6228ZM18.7063 13.4432L12.3441 23.6228L6.61803 12.807L18.7063 13.4432ZM27.3819 24.9373L21 14.7262L14.6181 24.9373H27.3819Z" fill="white"/>
</svg>
